<svg width="80" height="80" viewBox="0 0 80 80" fill="none" xmlns="http://www.w3.org/2000/svg">
<path d="M33.464 11.3208C36.3689 6.28931 43.6311 6.28931 46.536 11.3208L68.105 48.6792C71.0099 53.7107 67.3788 60 61.5689 60H18.4311C12.6213 60 8.99012 53.7107 11.895 48.6792L33.464 11.3208Z" fill="#19E407"/>
<path d="M36.125 25.0197C36.0576 24.1431 36.7507 23.3945 37.63 23.3945H41.9172C42.7964 23.3945 43.4896 24.1431 43.4222 25.0197L42.1449 41.6235C42.0844 42.4099 41.4287 43.0172 40.64 43.0172H38.9072C38.1185 43.0172 37.4627 42.4099 37.4022 41.6235L36.125 25.0197Z" fill="white"/>
<circle cx="39.7738" cy="50.5638" r="3.01887" fill="white"/>
</svg>
