<svg width="18" height="19" viewBox="0 0 18 19" fill="none" xmlns="http://www.w3.org/2000/svg">
<path fill-rule="evenodd" clip-rule="evenodd" d="M2.68159 5.63659C3.03814 2.42767 5.75049 0 8.97916 0C12.2078 0 14.9202 2.42767 15.2767 5.6366L15.5285 7.90281L15.5347 7.95776C15.6515 8.9761 15.983 9.95809 16.5072 10.8389L16.5356 10.8864L17.1137 11.8498L17.1331 11.8822C17.3788 12.2916 17.5918 12.6466 17.7321 12.9445C17.8742 13.2462 18.0058 13.6155 17.9416 14.0227C17.8757 14.4406 17.6606 14.8204 17.3362 15.0919C17.0201 15.3566 16.6357 15.4337 16.3038 15.4671C15.9762 15.5 15.5621 15.5 15.0847 15.5L15.0469 15.5H2.91139L2.87365 15.5C2.39618 15.5 1.98208 15.5 1.6545 15.4671C1.32266 15.4337 0.938231 15.3566 0.622108 15.0919C0.297723 14.8204 0.0826681 14.4406 0.0167376 14.0227C-0.0475139 13.6155 0.0841179 13.2462 0.226222 12.9445C0.366499 12.6466 0.579561 12.2916 0.825234 11.8821L0.844662 11.8498L1.4227 10.8864L1.4511 10.8389C1.97531 9.95809 2.30678 8.9761 2.42364 7.95776L2.42979 7.90281L2.68159 5.63659ZM8.97916 1.5C6.51482 1.5 4.44456 3.35297 4.17242 5.80224L3.92062 8.06846L3.91386 8.12876C3.77282 9.3578 3.37277 10.543 2.74011 11.6061L2.70894 11.6581L2.1309 12.6215C1.86021 13.0727 1.68741 13.3624 1.58325 13.5836C1.51927 13.7194 1.50439 13.7837 1.50098 13.8027C1.5117 13.8524 1.53732 13.8977 1.57441 13.9324C1.59246 13.9393 1.65525 13.9596 1.80466 13.9746C2.04789 13.9991 2.38525 14 2.91139 14H15.0469C15.5731 14 15.9104 13.9991 16.1537 13.9746C16.3031 13.9596 16.3659 13.9393 16.3839 13.9324C16.421 13.8977 16.4466 13.8524 16.4573 13.8027C16.4539 13.7837 16.4391 13.7194 16.3751 13.5836C16.2709 13.3624 16.0981 13.0727 15.8274 12.6215L15.2494 11.6581L15.2182 11.6061C14.5856 10.543 14.1855 9.3578 14.0445 8.12876L14.0377 8.06846L13.7859 5.80224C13.5138 3.35297 11.4435 1.5 8.97916 1.5Z" fill="#5E5E5E"/>
<path d="M5.83171 14.9059C6.00264 15.6501 6.37927 16.3077 6.90321 16.7767C7.42714 17.2458 8.06909 17.5 8.72949 17.5C9.38989 17.5 10.0318 17.2458 10.5558 16.7767C11.0797 16.3077 11.4563 15.6501 11.6273 14.9059" stroke="#5E5E5E" stroke-width="1.5" stroke-linecap="round"/>
</svg>
