<svg width="46" height="58" viewBox="0 0 46 58" fill="none" xmlns="http://www.w3.org/2000/svg">
<g id="Group 482724">
<g id="Group 482718">
<g id="Vector 55" filter="url(#filter0_i_1613_6737)">
<path d="M38.4399 12.9357C30.5045 30.5662 12.7293 25.9724 6.10317 20.759C15.1494 10.6805 19.8134 12.4048 26.926 15.2801C30.1986 16.3185 34.3575 16.0327 38.4399 12.9357Z" fill="#19E407"/>
</g>
<g id="Vector 61" filter="url(#filter1_i_1613_6737)">
<path d="M5.86849 52.0041C-4.58589 41.8178 1.18997 27.338 5.86849 20.9609C5.86849 31.9464 7.09142 39.6769 12.8711 45.0253C18.072 49.8382 22.8112 47.9384 24.0114 47.2811C25.2117 46.6237 28.033 45.0253 28.033 40.0922C28.033 38.5334 24.4868 33.5739 16.7563 36.6254C17.57 32.7601 25.6389 28.9381 33.3694 33.4475C38.2519 36.2956 38.0484 40.7712 38.0484 40.7712C38.0484 45.7043 36.8339 49.1156 32.0334 53.4479C26.7716 58.1964 14.722 60.6307 5.86849 52.0041Z" fill="#F8FFF3"/>
</g>
</g>
<path id="Vector 63" d="M33.436 24.9604L41.7533 16.3708L39.5909 21.9807L44.5869 21.9764L36.1605 31.744L38.3426 24.9562L33.436 24.9604Z" fill="#FEF100"/>
</g>
<defs>
<filter id="filter0_i_1613_6737" x="6.10352" y="12.9355" width="32.3359" height="12.5215" filterUnits="userSpaceOnUse" color-interpolation-filters="sRGB">
<feFlood flood-opacity="0" result="BackgroundImageFix"/>
<feBlend mode="normal" in="SourceGraphic" in2="BackgroundImageFix" result="shape"/>
<feColorMatrix in="SourceAlpha" type="matrix" values="0 0 0 0 0 0 0 0 0 0 0 0 0 0 0 0 0 0 127 0" result="hardAlpha"/>
<feOffset/>
<feGaussianBlur stdDeviation="2.37161"/>
<feComposite in2="hardAlpha" operator="arithmetic" k2="-1" k3="1"/>
<feColorMatrix type="matrix" values="0 0 0 0 0.54321 0 0 0 0 0.725814 0 0 0 0 0.527018 0 0 0 1 0"/>
<feBlend mode="normal" in2="shape" result="effect1_innerShadow_1613_6737"/>
</filter>
<filter id="filter1_i_1613_6737" x="0" y="20.9609" width="38.0498" height="36.7871" filterUnits="userSpaceOnUse" color-interpolation-filters="sRGB">
<feFlood flood-opacity="0" result="BackgroundImageFix"/>
<feBlend mode="normal" in="SourceGraphic" in2="BackgroundImageFix" result="shape"/>
<feColorMatrix in="SourceAlpha" type="matrix" values="0 0 0 0 0 0 0 0 0 0 0 0 0 0 0 0 0 0 127 0" result="hardAlpha"/>
<feOffset/>
<feGaussianBlur stdDeviation="2.37161"/>
<feComposite in2="hardAlpha" operator="arithmetic" k2="-1" k3="1"/>
<feColorMatrix type="matrix" values="0 0 0 0 0.7119 0 0 0 0 0.925911 0 0 0 0 0.581965 0 0 0 1 0"/>
<feBlend mode="normal" in2="shape" result="effect1_innerShadow_1613_6737"/>
</filter>
</defs>
</svg>
