<svg width="270" height="57" viewBox="0 0 270 57" fill="none" xmlns="http://www.w3.org/2000/svg">
<path d="M15.975 30.95H27.63L25.02 44H19.71L18.855 41.12H18.675C17.895 42.02 16.965 42.785 15.885 43.415C14.835 44.045 13.455 44.36 11.745 44.36C10.425 44.36 9.15 44.15 7.92 43.73C6.72 43.28 5.64 42.59 4.68 41.66C3.75 40.7 3 39.455 2.43 37.925C1.86 36.395 1.575 34.55 1.575 32.39C1.575 30.05 1.935 27.83 2.655 25.73C3.375 23.63 4.455 21.785 5.895 20.195C7.335 18.575 9.135 17.3 11.295 16.37C13.455 15.44 15.975 14.975 18.855 14.975C21.075 14.975 23.01 15.23 24.66 15.74C26.31 16.25 27.87 16.82 29.34 17.45L27.63 26.18H20.025C20.055 25.85 20.1 25.46 20.16 25.01C20.22 24.56 20.265 24.095 20.295 23.615C20.325 23.105 20.355 22.61 20.385 22.13C20.415 21.65 20.43 21.23 20.43 20.87C20.43 20.63 20.415 20.36 20.385 20.06C20.355 19.73 20.28 19.415 20.16 19.115C20.04 18.815 19.86 18.575 19.62 18.395C19.38 18.185 19.035 18.08 18.585 18.08C17.805 18.08 17.085 18.41 16.425 19.07C15.795 19.7 15.225 20.555 14.715 21.635C14.205 22.685 13.755 23.885 13.365 25.235C13.005 26.585 12.69 27.965 12.42 29.375C12.18 30.755 11.985 32.12 11.835 33.47C11.715 34.79 11.655 35.945 11.655 36.935C11.655 37.235 11.67 37.61 11.7 38.06C11.73 38.51 11.82 38.96 11.97 39.41C12.15 39.83 12.39 40.205 12.69 40.535C13.02 40.835 13.485 40.985 14.085 40.985C15.075 40.985 16.035 40.445 16.965 39.365C17.895 38.285 18.6 36.485 19.08 33.965H15.3L15.975 30.95ZM32.5171 24.65H39.8521L40.5271 28.025H40.8421C41.5321 26.945 42.4171 26.03 43.4971 25.28C44.5771 24.53 46.0021 24.155 47.7721 24.155C47.8921 24.155 48.0721 24.17 48.3121 24.2C48.5821 24.2 48.8671 24.245 49.1671 24.335C49.4971 24.395 49.8271 24.5 50.1571 24.65C50.5171 24.77 50.8621 24.95 51.1921 25.19L49.2121 34.46H44.3071C44.2471 32.6 44.0821 31.31 43.8121 30.59C43.5421 29.84 43.1071 29.465 42.5071 29.465C42.2071 29.465 41.8771 29.54 41.5171 29.69C41.1871 29.81 40.8421 30.095 40.4821 30.545L37.6021 44H28.4221L32.5171 24.65ZM60.435 34.955C60.315 35.615 60.225 36.245 60.165 36.845C60.135 37.445 60.12 37.985 60.12 38.465C60.12 38.735 60.135 39.035 60.165 39.365C60.195 39.695 60.255 40.01 60.345 40.31C60.465 40.58 60.615 40.82 60.795 41.03C61.005 41.21 61.29 41.3 61.65 41.3C61.92 41.3 62.22 41.21 62.55 41.03C62.91 40.85 63.255 40.595 63.585 40.265C63.945 39.935 64.275 39.53 64.575 39.05C64.905 38.57 65.16 38.03 65.34 37.43H72.72L71.55 42.245C70.95 42.635 70.26 42.965 69.48 43.235C68.7 43.505 67.875 43.73 67.005 43.91C66.135 44.06 65.25 44.165 64.35 44.225C63.45 44.315 62.595 44.36 61.785 44.36C60.285 44.36 58.89 44.225 57.6 43.955C56.31 43.685 55.185 43.22 54.225 42.56C53.265 41.9 52.5 41.03 51.93 39.95C51.39 38.84 51.12 37.475 51.12 35.855C51.12 34.385 51.345 32.945 51.795 31.535C52.275 30.125 53.055 28.88 54.135 27.8C55.245 26.69 56.715 25.805 58.545 25.145C60.405 24.485 62.715 24.155 65.475 24.155C68.475 24.155 70.725 24.62 72.225 25.55C73.755 26.48 74.52 27.935 74.52 29.915C74.52 30.725 74.4 31.61 74.16 32.57C73.92 33.5 73.56 34.295 73.08 34.955H60.435ZM66.42 29.6C66.42 28.67 66.27 28.04 65.97 27.71C65.67 27.38 65.31 27.215 64.89 27.215C64.41 27.215 63.96 27.38 63.54 27.71C63.15 28.01 62.79 28.43 62.46 28.97C62.13 29.48 61.83 30.08 61.56 30.77C61.29 31.43 61.065 32.135 60.885 32.885H66.015C66.075 32.525 66.135 32.15 66.195 31.76C66.255 31.43 66.3 31.07 66.33 30.68C66.39 30.29 66.42 29.93 66.42 29.6ZM85.0444 34.955C84.9244 35.615 84.8344 36.245 84.7744 36.845C84.7444 37.445 84.7294 37.985 84.7294 38.465C84.7294 38.735 84.7444 39.035 84.7744 39.365C84.8044 39.695 84.8644 40.01 84.9544 40.31C85.0744 40.58 85.2244 40.82 85.4044 41.03C85.6144 41.21 85.8994 41.3 86.2594 41.3C86.5294 41.3 86.8294 41.21 87.1594 41.03C87.5194 40.85 87.8644 40.595 88.1944 40.265C88.5544 39.935 88.8844 39.53 89.1844 39.05C89.5144 38.57 89.7694 38.03 89.9494 37.43H97.3294L96.1594 42.245C95.5594 42.635 94.8694 42.965 94.0894 43.235C93.3094 43.505 92.4844 43.73 91.6144 43.91C90.7444 44.06 89.8594 44.165 88.9594 44.225C88.0594 44.315 87.2044 44.36 86.3944 44.36C84.8944 44.36 83.4994 44.225 82.2094 43.955C80.9194 43.685 79.7944 43.22 78.8344 42.56C77.8744 41.9 77.1094 41.03 76.5394 39.95C75.9994 38.84 75.7294 37.475 75.7294 35.855C75.7294 34.385 75.9544 32.945 76.4044 31.535C76.8844 30.125 77.6644 28.88 78.7444 27.8C79.8544 26.69 81.3244 25.805 83.1544 25.145C85.0144 24.485 87.3244 24.155 90.0844 24.155C93.0844 24.155 95.3344 24.62 96.8344 25.55C98.3644 26.48 99.1294 27.935 99.1294 29.915C99.1294 30.725 99.0094 31.61 98.7694 32.57C98.5294 33.5 98.1694 34.295 97.6894 34.955H85.0444ZM91.0294 29.6C91.0294 28.67 90.8794 28.04 90.5794 27.71C90.2794 27.38 89.9194 27.215 89.4994 27.215C89.0194 27.215 88.5694 27.38 88.1494 27.71C87.7594 28.01 87.3994 28.43 87.0694 28.97C86.7394 29.48 86.4394 30.08 86.1694 30.77C85.8994 31.43 85.6744 32.135 85.4944 32.885H90.6244C90.6844 32.525 90.7444 32.15 90.8044 31.76C90.8644 31.43 90.9094 31.07 90.9394 30.68C90.9994 30.29 91.0294 29.93 91.0294 29.6ZM111.904 27.53C112.534 26.93 113.239 26.375 114.019 25.865C114.709 25.445 115.519 25.055 116.449 24.695C117.379 24.335 118.414 24.155 119.554 24.155C121.114 24.155 122.404 24.56 123.424 25.37C124.444 26.15 124.954 27.23 124.954 28.61C124.954 29 124.909 29.48 124.819 30.05C124.729 30.59 124.624 31.16 124.504 31.76C124.384 32.36 124.249 32.975 124.099 33.605C123.979 34.205 123.874 34.745 123.784 35.225L121.894 44H112.759L115.234 32.255C115.294 31.865 115.369 31.475 115.459 31.085C115.549 30.665 115.594 30.29 115.594 29.96C115.594 29.51 115.474 29.15 115.234 28.88C115.024 28.58 114.694 28.43 114.244 28.43C113.704 28.43 113.179 28.625 112.669 29.015C112.189 29.405 111.814 29.735 111.544 30.005L108.574 44H99.3937L103.489 24.65H110.824L111.634 27.53H111.904ZM152.554 23.705C152.644 23.255 152.689 22.64 152.689 21.86C152.689 21.41 152.659 20.975 152.599 20.555C152.539 20.105 152.434 19.715 152.284 19.385C152.134 19.025 151.909 18.755 151.609 18.575C151.309 18.365 150.919 18.26 150.439 18.26C149.899 18.26 149.404 18.38 148.954 18.62C148.504 18.86 148.099 19.175 147.739 19.565C147.409 19.925 147.139 20.36 146.929 20.87C146.749 21.35 146.659 21.86 146.659 22.4C146.659 23.18 146.854 23.78 147.244 24.2C147.664 24.62 148.204 24.965 148.864 25.235C149.524 25.505 150.274 25.73 151.114 25.91C151.954 26.09 152.824 26.3 153.724 26.54C154.474 26.75 155.224 27.02 155.974 27.35C156.724 27.68 157.384 28.13 157.954 28.7C158.554 29.24 159.034 29.96 159.394 30.86C159.754 31.73 159.934 32.825 159.934 34.145C159.934 36.035 159.559 37.625 158.809 38.915C158.059 40.205 157.024 41.255 155.704 42.065C154.384 42.875 152.809 43.46 150.979 43.82C149.179 44.18 147.214 44.36 145.084 44.36C142.924 44.36 141.154 44.225 139.774 43.955C138.424 43.655 137.359 43.34 136.579 43.01C135.649 42.62 134.959 42.17 134.509 41.66L136.039 35.495H143.959C143.929 35.765 143.899 36.14 143.869 36.62C143.839 37.07 143.824 37.43 143.824 37.7C143.824 38.06 143.869 38.435 143.959 38.825C144.049 39.215 144.184 39.575 144.364 39.905C144.574 40.235 144.859 40.505 145.219 40.715C145.579 40.925 146.029 41.03 146.569 41.03C147.169 41.03 147.694 40.895 148.144 40.625C148.624 40.355 149.014 40.025 149.314 39.635C149.644 39.215 149.884 38.765 150.034 38.285C150.214 37.775 150.304 37.28 150.304 36.8C150.304 36.14 150.139 35.585 149.809 35.135C149.509 34.685 149.089 34.31 148.549 34.01C148.009 33.68 147.379 33.41 146.659 33.2C145.969 32.96 145.249 32.72 144.499 32.48C143.779 32.27 143.014 32.015 142.204 31.715C141.424 31.415 140.704 30.995 140.044 30.455C139.384 29.915 138.829 29.24 138.379 28.43C137.959 27.59 137.749 26.525 137.749 25.235C137.749 23.315 138.229 21.71 139.189 20.42C140.179 19.1 141.409 18.035 142.879 17.225C144.379 16.415 146.014 15.845 147.784 15.515C149.554 15.155 151.234 14.975 152.824 14.975C154.924 14.975 156.724 15.23 158.224 15.74C159.754 16.22 160.909 16.79 161.689 17.45L160.024 23.705H152.554ZM168.345 51.56H159.165L164.835 24.65H172.17L172.98 27.53H173.25C174.33 26.39 175.53 25.58 176.85 25.1C178.2 24.59 179.52 24.335 180.81 24.335C181.86 24.335 182.73 24.5 183.42 24.83C184.14 25.13 184.71 25.55 185.13 26.09C185.55 26.63 185.85 27.275 186.03 28.025C186.21 28.775 186.3 29.57 186.3 30.41C186.3 30.83 186.27 31.46 186.21 32.3C186.15 33.14 186.015 34.085 185.805 35.135C185.595 36.155 185.295 37.22 184.905 38.33C184.515 39.41 183.99 40.4 183.33 41.3C182.7 42.2 181.89 42.935 180.9 43.505C179.94 44.075 178.785 44.36 177.435 44.36C176.685 44.36 175.95 44.27 175.23 44.09C174.54 43.91 173.91 43.67 173.34 43.37C172.77 43.07 172.26 42.725 171.81 42.335C171.39 41.915 171.075 41.495 170.865 41.075H170.595L168.345 51.56ZM173.115 39.995C173.835 39.995 174.435 39.62 174.915 38.87C175.395 38.09 175.785 37.19 176.085 36.17C176.385 35.12 176.595 34.085 176.715 33.065C176.865 32.015 176.94 31.235 176.94 30.725C176.94 30.125 176.835 29.63 176.625 29.24C176.445 28.85 176.1 28.655 175.59 28.655C175.02 28.655 174.48 28.865 173.97 29.285C173.46 29.675 173.085 30.02 172.845 30.32L171.09 38.555C171.33 38.885 171.615 39.215 171.945 39.545C172.275 39.845 172.665 39.995 173.115 39.995ZM190.755 26.315C192.285 25.565 193.845 25.025 195.435 24.695C197.055 24.335 198.855 24.155 200.835 24.155C202.755 24.155 204.345 24.305 205.605 24.605C206.865 24.905 207.87 25.34 208.62 25.91C209.37 26.48 209.895 27.155 210.195 27.935C210.495 28.715 210.645 29.6 210.645 30.59C210.645 31.16 210.6 31.775 210.51 32.435C210.45 33.095 210.375 33.65 210.285 34.1L208.17 44H200.925L200.115 41.12H199.845C198.885 42.17 197.76 42.98 196.47 43.55C195.21 44.09 193.95 44.36 192.69 44.36C191.97 44.36 191.265 44.255 190.575 44.045C189.885 43.835 189.27 43.52 188.73 43.1C188.19 42.65 187.755 42.095 187.425 41.435C187.095 40.745 186.93 39.92 186.93 38.96C186.93 37.4 187.35 36.17 188.19 35.27C189.06 34.34 190.185 33.65 191.565 33.2C192.975 32.72 194.55 32.42 196.29 32.3C198.06 32.18 199.83 32.12 201.6 32.12C201.66 31.82 201.735 31.4 201.825 30.86C201.915 30.29 201.96 29.795 201.96 29.375C201.96 28.835 201.81 28.34 201.51 27.89C201.24 27.41 200.655 27.17 199.755 27.17C198.705 27.17 197.925 27.485 197.415 28.115C196.935 28.715 196.62 29.45 196.47 30.32H189.9L190.755 26.315ZM201.105 34.235H200.295C199.425 34.235 198.675 34.355 198.045 34.595C197.445 34.805 196.95 35.09 196.56 35.45C196.2 35.81 195.93 36.215 195.75 36.665C195.57 37.115 195.48 37.565 195.48 38.015C195.48 38.735 195.66 39.275 196.02 39.635C196.41 39.995 196.86 40.175 197.37 40.175C198 40.175 198.615 39.95 199.215 39.5C199.845 39.05 200.235 38.45 200.385 37.7L201.105 34.235ZM215.989 24.65H223.324L223.999 28.025H224.314C225.004 26.945 225.889 26.03 226.969 25.28C228.049 24.53 229.474 24.155 231.244 24.155C231.364 24.155 231.544 24.17 231.784 24.2C232.054 24.2 232.339 24.245 232.639 24.335C232.969 24.395 233.299 24.5 233.629 24.65C233.989 24.77 234.334 24.95 234.664 25.19L232.684 34.46H227.779C227.719 32.6 227.554 31.31 227.284 30.59C227.014 29.84 226.579 29.465 225.979 29.465C225.679 29.465 225.349 29.54 224.989 29.69C224.659 29.81 224.314 30.095 223.954 30.545L221.074 44H211.894L215.989 24.65Z" fill="white"/>
<path d="M239.5 11H247.5L243 44.5H235L239.5 11Z" fill="white"/>
<path d="M243.388 31.0556L261.361 12.5765L256.694 24.6514L267.5 24.6514L249.293 45.6664L254 31.0556L243.388 31.0556Z" fill="#FEF100"/>
</svg>
