<svg width="60" height="60" viewBox="0 0 60 60" fill="none" xmlns="http://www.w3.org/2000/svg">
<g clip-path="url(#clip0_840_19427)">
<path d="M60 30C60 46.5685 46.5685 60 30 60C13.4315 60 0 46.5685 0 30C0 13.4315 13.4315 0 30 0C46.5685 0 60 13.4315 60 30Z" fill="url(#paint0_radial_840_19427)"/>
<path d="M20.3999 29.5123C20.3999 25.7368 23.5542 22.6761 29.9999 22.6761C36.4456 22.6761 39.5999 25.7368 39.5999 29.5123C39.5999 30.113 39.1617 30.5999 38.6211 30.5999H21.3787C20.8381 30.5999 20.3999 30.113 20.3999 29.5123Z" fill="#91E26B"/>
<path d="M33.9999 14.9999C33.9999 17.285 32.2226 19 29.9999 19C28.0117 19 25.9999 17.3194 25.9999 14.9999C25.9999 12.6804 27.7226 11 29.9999 11C32.2772 11 33.9999 12.7148 33.9999 14.9999Z" fill="#91E26B"/>
</g>
<defs>
<radialGradient id="paint0_radial_840_19427" cx="0" cy="0" r="1" gradientUnits="userSpaceOnUse" gradientTransform="translate(30 30) rotate(90) scale(30)">
<stop stop-color="#D7F3C6"/>
<stop offset="0.66" stop-color="#EDF9E5" stop-opacity="0.67"/>
<stop offset="0.95" stop-color="#F7FCF3" stop-opacity="0.303733"/>
<stop offset="1" stop-color="white" stop-opacity="0"/>
</radialGradient>
<clipPath id="clip0_840_19427">
<rect width="60" height="60" fill="white"/>
</clipPath>
</defs>
</svg>
