<svg width="60" height="60" viewBox="0 0 60 60" fill="none" xmlns="http://www.w3.org/2000/svg">
<path fill-rule="evenodd" clip-rule="evenodd" d="M24.2085 13.0012C21.7134 13.4839 20.9487 15.0132 20.9487 15.0132V29.0288C20.9487 29.0288 22.0269 26.8726 25.8003 26.8726C29.5737 26.8726 30.6519 29.0288 30.6519 29.0288C30.6519 29.0288 31.73 26.8726 35.5034 26.8726C39.2769 26.8726 40.355 29.0288 40.355 29.0288V15.0132C40.355 15.0132 39.2769 12.8569 35.5034 12.8569C31.73 12.8569 30.6519 16.0913 30.6519 16.0913C30.6519 16.0913 29.8753 13.7616 27.3335 13.0566V16.5526C27.3335 16.7927 27.0432 16.913 26.8734 16.7432L25.9616 15.8314C25.8563 15.7261 25.6857 15.7261 25.5804 15.8314L24.6686 16.7432C24.4988 16.913 24.2085 16.7927 24.2085 16.5526V13.0012Z" fill="#C4C4C4"/>
</svg>
