<svg width="60" height="60" viewBox="0 0 60 60" fill="none" xmlns="http://www.w3.org/2000/svg">
<g clip-path="url(#clip0_840_19252)">
<path d="M60 30C60 46.5685 46.5685 60 30 60C13.4315 60 0 46.5685 0 30C0 13.4315 13.4315 0 30 0C46.5685 0 60 13.4315 60 30Z" fill="url(#paint0_radial_840_19252)"/>
<path d="M21.2 15.4998C21.2 14.2848 22.1849 13.2998 23.4 13.2998H36.5999C37.815 13.2998 38.7999 14.2848 38.7999 15.4998V23.1998C38.7999 24.4148 37.815 25.3998 36.5999 25.3998H23.4C22.1849 25.3998 21.2 24.4148 21.2 23.1998V15.4998Z" fill="#91E26B"/>
<path d="M30 25.3998V27.5998M26.7 28.6998H33.3M23.4 25.3998H36.5999C37.815 25.3998 38.7999 24.4148 38.7999 23.1998V15.4998C38.7999 14.2848 37.815 13.2998 36.5999 13.2998H23.4C22.1849 13.2998 21.2 14.2848 21.2 15.4998V23.1998C21.2 24.4148 22.1849 25.3998 23.4 25.3998Z" stroke="#91E26B" stroke-width="2" stroke-linecap="round" stroke-linejoin="round"/>
</g>
<defs>
<radialGradient id="paint0_radial_840_19252" cx="0" cy="0" r="1" gradientUnits="userSpaceOnUse" gradientTransform="translate(30 30) rotate(90) scale(30)">
<stop stop-color="#D7F3C6"/>
<stop offset="0.66" stop-color="#EDF9E5" stop-opacity="0.67"/>
<stop offset="0.95" stop-color="#F7FCF3" stop-opacity="0.303733"/>
<stop offset="1" stop-color="white" stop-opacity="0"/>
</radialGradient>
<clipPath id="clip0_840_19252">
<rect width="60" height="60" fill="white"/>
</clipPath>
</defs>
</svg>
