<svg width="60" height="60" viewBox="0 0 60 60" fill="none" xmlns="http://www.w3.org/2000/svg">
<path d="M21.2 15.4998C21.2 14.2848 22.1849 13.2998 23.4 13.2998H36.5999C37.815 13.2998 38.7999 14.2848 38.7999 15.4998V23.1998C38.7999 24.4148 37.815 25.3998 36.5999 25.3998H23.4C22.1849 25.3998 21.2 24.4148 21.2 23.1998V15.4998Z" fill="#C4C4C4"/>
<path d="M30 25.3998V27.5998M26.7 28.6998H33.3M23.4 25.3998H36.5999C37.815 25.3998 38.7999 24.4148 38.7999 23.1998V15.4998C38.7999 14.2848 37.815 13.2998 36.5999 13.2998H23.4C22.1849 13.2998 21.2 14.2848 21.2 15.4998V23.1998C21.2 24.4148 22.1849 25.3998 23.4 25.3998Z" stroke="#C4C4C4" stroke-width="2" stroke-linecap="round" stroke-linejoin="round"/>
</svg>
