<svg width="60" height="60" viewBox="0 0 60 60" fill="none" xmlns="http://www.w3.org/2000/svg">
<path d="M26.1927 13L23.0523 21.5777C23.0089 21.7001 22.9921 21.8329 23.0034 21.9645C23.0147 22.0962 23.0538 22.2226 23.1172 22.3327C23.1806 22.4427 23.2664 22.5331 23.367 22.5958C23.4677 22.6585 23.5801 22.6916 23.6944 22.6923H27.5885L24.797 34L36.7864 20.8508C36.886 20.7397 36.9548 20.5969 36.9841 20.4405C37.0134 20.284 37.002 20.1211 36.9511 19.9722C36.9002 19.8233 36.8123 19.6953 36.6986 19.6044C36.5847 19.5135 36.4501 19.4638 36.3118 19.4615H31.0778L33.8693 13H26.1927Z" fill="#C4C4C4"/>
</svg>
