<svg width="27" height="27" viewBox="0 0 27 27" fill="none" xmlns="http://www.w3.org/2000/svg">
<path d="M22.9289 12.2344L21.0938 10.4005V5.90625C21.0938 5.21016 20.5242 4.64062 19.8281 4.64062H18.5625C17.8664 4.64062 17.2969 5.21016 17.2969 5.90625V6.60614L14.7656 4.07742C14.4201 3.75089 14.1037 3.375 13.5 3.375C12.8963 3.375 12.5799 3.75089 12.2344 4.07742L4.07109 12.2344C3.67622 12.6457 3.375 12.9457 3.375 13.5C3.375 14.2125 3.92175 14.7656 4.64062 14.7656H5.90625V22.3594C5.90625 23.0555 6.47578 23.625 7.17188 23.625H9.70312C10.4021 23.625 10.9688 23.0584 10.9688 22.3594V17.2969C10.9688 16.6008 11.5383 16.0312 12.2344 16.0312H14.7656C15.4617 16.0312 16.0312 16.6008 16.0312 17.2969V22.3594C16.0312 23.0584 15.9651 23.625 16.6641 23.625H19.8281C20.5242 23.625 21.0938 23.0555 21.0938 22.3594V14.7656H22.3594C23.0783 14.7656 23.625 14.2125 23.625 13.5C23.625 12.9457 23.3238 12.6457 22.9289 12.2344Z" fill="#C4C4C4"/>
</svg>
