<svg width="12" height="13" viewBox="0 0 12 13" fill="none" xmlns="http://www.w3.org/2000/svg">
<ellipse cx="6" cy="6.68714" rx="6" ry="5.99964" fill="#91E26B"/>
<path d="M3.6653 3.19791H6.21139C6.71873 3.19791 7.15247 3.29343 7.51262 3.48446C7.8759 3.6755 8.14992 3.94169 8.3347 4.28305C8.51947 4.62128 8.61185 5.01117 8.61185 5.45275C8.61185 5.89119 8.5179 6.27952 8.33 6.61775C8.14209 6.95284 7.8665 7.21747 7.50322 7.41164C7.14308 7.60267 6.7062 7.69819 6.1926 7.69819H4.50147V6.68821H6.02819C6.32883 6.68821 6.5778 6.63654 6.7751 6.53319C6.97553 6.42671 7.12272 6.28109 7.21667 6.09631C7.31376 5.91154 7.3623 5.69702 7.3623 5.45275C7.3623 5.20221 7.31376 4.98612 7.21667 4.80448C7.12272 4.61971 6.97553 4.47722 6.7751 4.377C6.57467 4.27365 6.32413 4.22198 6.02349 4.22198H4.88667V10H3.6653V3.19791Z" fill="white"/>
</svg>
