<svg width="51" height="53" viewBox="0 0 51 53" fill="none" xmlns="http://www.w3.org/2000/svg">
<g filter="url(#filter0_d_3101_15411)">
<path d="M21.3333 9.21699C23.1851 6.00944 27.8148 6.00943 29.6667 9.21698L43.4169 33.033C45.2688 36.2406 42.954 40.25 39.2502 40.25H11.7498C8.04606 40.25 5.7312 36.2406 7.58308 33.033L21.3333 9.21699Z" fill="#19E407"/>
</g>
<path d="M23.0309 17.9501C22.9879 17.3913 23.4298 16.9141 23.9903 16.9141H26.7234C27.2839 16.9141 27.7258 17.3913 27.6828 17.9501L26.8686 28.535C26.83 29.0364 26.412 29.4235 25.9091 29.4235H24.8045C24.3017 29.4235 23.8837 29.0364 23.8451 28.535L23.0309 17.9501Z" fill="white"/>
<circle cx="25.3562" cy="34.2351" r="1.92453" fill="white"/>
<defs>
<filter id="filter0_d_3101_15411" x="0.556641" y="0.435547" width="49.8867" height="46.1895" filterUnits="userSpaceOnUse" color-interpolation-filters="sRGB">
<feFlood flood-opacity="0" result="BackgroundImageFix"/>
<feColorMatrix in="SourceAlpha" type="matrix" values="0 0 0 0 0 0 0 0 0 0 0 0 0 0 0 0 0 0 127 0" result="hardAlpha"/>
<feOffset/>
<feGaussianBlur stdDeviation="3.1875"/>
<feComposite in2="hardAlpha" operator="out"/>
<feColorMatrix type="matrix" values="0 0 0 0 0.843137 0 0 0 0 0.952941 0 0 0 0 0.776471 0 0 0 1 0"/>
<feBlend mode="normal" in2="BackgroundImageFix" result="effect1_dropShadow_3101_15411"/>
<feBlend mode="normal" in="SourceGraphic" in2="effect1_dropShadow_3101_15411" result="shape"/>
</filter>
</defs>
</svg>
